<?xml version="1.0" encoding="UTF-8" standalone="no"?>
<svg width="101px" height="101px" viewBox="0 0 101 101" version="1.1" xmlns="http://www.w3.org/2000/svg" xmlns:xlink="http://www.w3.org/1999/xlink">
    <!-- Generator: Sketch Beta 3.8 (29681) - http://www.bohemiancoding.com/sketch -->
    <title>Icon</title>
    <desc>Created with Sketch Beta.</desc>
    <defs></defs>
    <g id="Mobile" stroke="none" stroke-width="1" fill="none" fill-rule="evenodd">
        <g id="Mobile-Portrait-6P" transform="translate(-157.000000, -125.000000)">
            <g id="Group-2" transform="translate(138.000000, 125.000000)">
                <g id="Icon" transform="translate(19.000000, 0.000000)">
                    <path d="M100.287084,31.6470514 C100.287084,30.7293943 100.282756,29.4885371 100.271213,27.9692086 C100.252456,26.36908 100.248127,25.7212371 100.230813,24.9622943 C100.191856,22.7215371 100.03747,20.4447086 99.6623271,18.4160514 C99.2424557,16.2041514 98.6826271,14.1913657 97.6610843,12.17858 C96.6294414,10.1340514 95.20967,8.36943714 93.6701414,6.79960857 C92.0974271,5.26152286 90.3342557,3.84608 88.2882843,2.81010857 C86.2798271,1.79000857 84.2699271,1.22008 82.0522557,0.808865714 C80.0235986,0.429394286 77.7496557,0.279337143 75.5060129,0.238937143 C74.7485129,0.223065714 74.10067,0.217294286 72.5019843,0.19998 C70.9826557,0.184108571 69.7417986,0.17978 68.8241414,0.17978 L31.6474843,0.17978 C30.7298271,0.17978 29.4846414,0.184108571 27.97397,0.19998 C26.3752843,0.217294286 25.7231129,0.223065714 24.9684986,0.238937143 C22.7205271,0.279337143 20.4480271,0.429394286 18.4150414,0.808865714 C16.2002557,1.22008 14.1917986,1.79000857 12.17757,2.81010857 C10.13737,3.84608 8.37852714,5.26152286 6.80004143,6.79960857 C5.26195571,8.36943714 3.84507,10.1340514 2.80909857,12.17858 C1.79332714,14.1913657 1.22917,16.2041514 0.809298571,18.4160514 C0.434155714,20.4447086 0.282655714,22.7215371 0.243698571,24.9622943 C0.223498571,25.7212371 0.211955714,26.36908 0.200412857,27.9692086 C0.18887,29.4885371 0.180212857,30.7293943 0.180212857,31.6470514 L0.180212857,68.8208229 C0.180212857,69.73848 0.18887,70.9793371 0.200412857,72.4972229 C0.211955714,74.0959086 0.223498571,74.7495229 0.243698571,75.5070229 C0.282655714,77.7506657 0.434155714,80.0231657 0.809298571,82.0518229 C1.22917,84.2666086 1.79332714,86.2793943 2.80909857,88.2892943 C3.84507,90.3294943 5.26195571,92.0969943 6.80004143,93.6697086 C8.37852714,95.2092371 10.13737,96.62468 12.17757,97.6577657 C14.1917986,98.6778657 16.2002557,99.2477943 18.4150414,99.6618943 C20.4480271,100.037037 22.7205271,100.188537 24.9684986,100.233266 C25.7231129,100.244809 26.3752843,100.25058 27.97397,100.267894 C29.4846414,100.283766 30.7298271,100.286651 31.6474843,100.286651 L68.8241414,100.286651 C69.7417986,100.286651 70.9826557,100.283766 72.5019843,100.267894 C74.10067,100.25058 74.7485129,100.244809 75.5060129,100.233266 C77.7496557,100.188537 80.0235986,100.037037 82.0522557,99.6618943 C84.2699271,99.2477943 86.2798271,98.6778657 88.2882843,97.6577657 C90.3342557,96.62468 92.0974271,95.2092371 93.6701414,93.6697086 C95.20967,92.0969943 96.6294414,90.3294943 97.6610843,88.2892943 C98.6826271,86.2793943 99.2424557,84.2666086 99.6623271,82.0518229 C100.03747,80.0231657 100.191856,77.7506657 100.230813,75.5070229 C100.248127,74.7495229 100.252456,74.0959086 100.271213,72.4972229 C100.282756,70.9793371 100.287084,69.73848 100.287084,68.8208229 L100.287084,31.6470514 L100.287084,31.6470514 Z" id="Stroke-1" stroke="#CCCCCC" stroke-width="0.25" fill="#FFFFFF"></path>
                    <path d="M27.9370329,22.1485786 C30.6813471,25.2002214 31.7461757,28.6255643 31.7461757,31.7940786 C31.7461757,35.5902357 30.2874471,38.8684071 28.0135043,40.4901786 C26.7394614,41.4006214 25.0513186,41.29385 24.2375471,40.4512214 C23.4843757,39.6720786 23.05729,38.1787214 24.39049,36.4920214 C26.13779,34.2902214 29.8906614,32.3712214 29.8906614,28.2114643 C29.8906614,26.5016786 29.4058614,24.3676929 27.9370329,22.1485786" id="Fill-3" fill="#000000"></path>
                    <polygon id="Fill-5" fill="#000000" points="69.3685314 58.1989414 79.2636457 58.1989414 72.98866 52.9498271"></polygon>
                    <polygon id="Fill-7" fill="#000000" points="60.5943729 41.8568529 36.6140871 41.8568529 36.4784586 41.6461957 60.6116871 41.6461957"></polygon>
                    <path d="M59.0205043,37.5311671 L55.23589,41.8568529 L56.2877329,41.8568529 L49.4471471,53.0649671 C49.4471471,53.0649671 60.2700186,45.0585529 61.4185329,44.4886243 C62.59879,43.8941671 65.2334471,43.2766243 65.2334471,43.2766243 L59.0205043,37.5311671 Z" id="Fill-9" fill="#000000"></path>
                    <path d="M68.3018271,30.4210557 L71.3664557,26.09537 L78.3152557,32.36747 C78.3152557,32.36747 75.7484129,33.0787986 74.76727,33.5607129 C73.8265271,34.02387 64.6831414,40.3406986 64.6831414,40.3406986 L69.5585557,30.4210557 L68.3018271,30.4210557 Z" id="Fill-11" fill="#000000"></path>
                    <polygon id="Fill-13" fill="#000000" points="53.1447571 30.2829743 53.1447571 23.1610314 54.6034857 20.9303743 47.0703286 18.4501029 47.0703286 30.2829743"></polygon>
                    <polygon id="Fill-15" fill="#000000" points="53.1447571 30.1914971 30.5236429 30.1914971 30.6664857 30.4209114 53.1447571 30.4209114"></polygon>
                    <polygon id="Fill-17" fill="#000000" points="51.09186 57.9890057 22.57956 57.9890057 22.72096 58.19822 51.09186 58.19822"></polygon>
                    <path d="M47.0351229,74.3323929 C47.0351229,75.1807929 46.34688,75.8675929 45.4970371,75.8675929 L34.25718,75.8675929 C38.3491229,76.40145 45.4725086,77.2325357 45.4725086,82.0199357 C49.56878,82.0199357 52.9392943,78.7634071 52.9392943,73.9630214 L52.9392943,58.8548643 C52.9392943,52.9348214 47.2010514,49.6999357 41.6287371,48.5499786 C45.3109086,49.9538786 47.0351229,52.9261643 47.0351229,56.8810357 L47.0351229,74.3323929 Z" id="Fill-19" fill="#000000"></path>
                    <polygon id="Fill-21" fill="#404040" points="72.9883714 52.9473743 73.5020286 56.07116 69.3653571 58.20226"></polygon>
                    <polygon id="Fill-23" fill="#404040" points="71.3664557 26.0988329 72.3201843 31.0608186 64.6831414 40.3412757 69.5585557 30.4216329 68.3018271 30.4216329"></polygon>
                    <polygon id="Fill-25" fill="#404040" points="59.0205043 37.5311671 55.23589 41.8626243 56.2877329 41.8626243 49.4471471 53.0649671 59.8588043 41.8236671"></polygon>
                    <polygon id="Fill-27" fill="#404040" points="47.0704729 18.4499586 50.1856014 22.4293586 50.1856014 30.28283 47.0704729 30.28283"></polygon>
                    <path d="M24.3946743,36.4913 C23.8435029,37.1838714 23.5953314,37.8418143 23.5433886,38.4305 L26.38726,38.4896571 C31.6118457,33.6589714 31.8845457,27.3075143 27.9368886,22.1478571 C29.4057171,24.3684143 29.89196,26.5009571 29.89196,28.2121857 C29.89196,32.3719429 26.1376457,34.2909429 24.3946743,36.4913" id="Fill-29" fill="#404040"></path>
                    <path d="M47.0351229,56.8814686 L47.0351229,74.3328257 C47.0351229,75.1812257 46.34688,75.8680257 45.4970371,75.8680257 L34.2600657,75.8680257 L34.2658371,75.8680257 C39.1138371,76.00654 45.0367657,76.8015543 46.7032657,78.1910257 C48.4866371,78.1910257 49.9496943,76.2821257 49.9496943,74.6185114 L49.9496943,57.6966829 C49.9496943,53.0809829 46.73068,50.0408829 41.6287371,48.5504114 C45.3109086,49.9543114 47.0351229,52.9265971 47.0351229,56.8814686" id="Fill-31" fill="#404040"></path>
                    <path d="M70.3069657,72.9318114 C70.3069657,75.0758971 68.5712086,76.8102114 66.4314514,76.8102114 C64.2931371,76.8102114 62.5559371,75.0758971 62.5559371,72.9318114 C62.5559371,70.7978257 64.2931371,69.0620686 66.4314514,69.0620686 C68.5712086,69.0620686 70.3069657,70.7978257 70.3069657,72.9318114" id="Fill-33" fill="#CBCBCB"></path>
                </g>
            </g>
        </g>
    </g>
</svg>