<?xml version="1.0" encoding="UTF-8" standalone="no"?>
<svg width="20px" height="20px" viewBox="0 0 20 20" version="1.1" xmlns="http://www.w3.org/2000/svg" xmlns:xlink="http://www.w3.org/1999/xlink">
    <!-- Generator: Sketch 3.8.3 (29802) - http://www.bohemiancoding.com/sketch -->
    <title>Combined Shape</title>
    <desc>Created with Sketch.</desc>
    <defs></defs>
    <g id="Page-1" stroke="none" stroke-width="1" fill="none" fill-rule="evenodd" opacity="0.8">
        <g id="Artboard-1" transform="translate(-5.000000, -5.000000)" fill="#34495E">
            <path d="M17.1213203,15 L24.1985704,7.9227499 C24.7801154,7.3412049 24.7781746,6.39339828 24.1923882,5.80761184 C23.6025177,5.21774141 22.6596222,5.2190575 22.0772501,5.80142955 L15,12.8786797 L7.9227499,5.80142955 C7.3412049,5.21988456 6.39339828,5.22182541 5.80761184,5.80761184 C5.21774141,6.39748228 5.2190575,7.34037784 5.80142955,7.9227499 L12.8786797,15 L5.80142955,22.0772501 C5.21988456,22.6587951 5.22182541,23.6066017 5.80761184,24.1923882 C6.39748228,24.7822586 7.34037784,24.7809425 7.9227499,24.1985704 L15,17.1213203 L22.0772501,24.1985704 C22.6587951,24.7801154 23.6066017,24.7781746 24.1923882,24.1923882 C24.7822586,23.6025177 24.7809425,22.6596222 24.1985704,22.0772501 L17.1213203,15 Z" id="Combined-Shape"></path>
        </g>
    </g>
</svg>