<?xml version="1.0" encoding="iso-8859-1"?>
<!-- Generator: Adobe Illustrator 21.1.0, SVG Export Plug-In . SVG Version: 6.00 Build 0)  -->
<svg version="1.1" id="&#x56FE;&#x5C42;_1" xmlns="http://www.w3.org/2000/svg" xmlns:xlink="http://www.w3.org/1999/xlink" x="0px"
	 y="0px" viewBox="0 0 24 24" style="enable-background:new 0 0 24 24;" xml:space="preserve">
<path d="M12,0C5.373,0,0,5.373,0,12c0,6.627,5.373,12,12,12s12-5.373,12-12C24,5.373,18.627,0,12,0z M21.976,11.528
	c-2.464-0.834-4.824-0.878-7.044-0.142c-0.414-0.837-0.849-1.601-1.293-2.306c2.346-1.764,3.449-3.925,3.951-5.373
	C20.128,5.422,21.824,8.273,21.976,11.528z M15.813,2.757c-0.326,1.101-1.177,3.06-3.307,4.674
	c-1.739-2.307-3.488-3.725-4.667-4.516C9.107,2.333,10.513,2,12,2C13.351,2,14.638,2.271,15.813,2.757z M5.912,4.08
	C6.672,4.502,8.7,5.797,10.775,8.499c-2.004,0.999-4.77,1.668-8.583,1.555C2.671,7.632,4.027,5.531,5.912,4.08z M2.002,12.034
	c0.343,0.012,0.702,0.035,1.031,0.035c3.884,0,6.766-0.782,8.903-1.908c0.391,0.621,0.775,1.299,1.144,2.034
	c-4.008,2.228-6.192,6.566-6.819,7.985C3.695,18.378,2.013,15.405,2.002,12.034z M8.013,21.169c0.391-0.912,2.339-5.079,5.899-7.142
	c0.826,2.014,1.518,4.397,1.959,7.195C14.681,21.722,13.373,22,12,22C10.582,22,9.235,21.701,8.013,21.169z M17.728,20.19
	c-0.471-2.677-1.16-4.989-1.973-6.974c1.895-0.574,3.942-0.438,6.102,0.398C21.417,16.328,19.89,18.675,17.728,20.19z"/>
</svg>
