<svg width="60px" height="60px" viewBox="-1 -1 155 155" version="1.1" xmlns="http://www.w3.org/2000/svg" xmlns:xlink="http://www.w3.org/1999/xlink">
<path d="M77,154 C119.525926,154 154,119.525926 154,77 C154,34.4740743 119.525926,-2.84217094e-14 77,-2.84217094e-14 C34.4740743,-2.84217094e-14 -1.56319402e-13,34.4740743 -1.56319402e-13,77 C-1.56319402e-13,119.525926 34.4740743,154 77,154 Z M100.710046,73.5073185 C103.698472,75.3926849 103.691912,78.4536066 100.710046,80.3348342 L68.6364915,100.569703 C65.6480657,102.455069 63.225468,101.111692 63.225468,97.5888207 L63.225468,56.253332 C63.225468,52.7216699 65.6546261,51.3912224 68.6364915,53.27245 L100.710046,73.5073185 Z" id="Combined-Shape" stroke="none" fill="#FFFFFF" fill-rule="evenodd"></path>
<path d="M101.059549,73.8567503 C104.047975,75.7421167 104.041415,78.8030385 101.059549,80.684266 L68.9859945,100.919135 C65.9975688,102.804501 63.574971,101.461124 63.574971,97.9382525 L63.574971,56.6027638 C63.574971,53.0711017 66.0041292,51.7406543 68.9859945,53.6218818 L101.059549,73.8567503 Z" id="Rectangle-2224" stroke="none" fill-opacity="0.3" fill="#000000" fill-rule="evenodd"></path>
</svg>